<!-- icon666.com - MILLIONS vector ICONS FREE -->
<svg xmlns="http://www.w3.org/2000/svg" id="Outline" viewBox="0 0 512 512">
    <path d="M488,208H464V120a8,8,0,0,0-2.343-5.657l-96-96A8,8,0,0,0,360,16H120A40.045,40.045,0,0,0,80,56V208H24a8,8,0,0,0-8,8v96a8,8,0,0,0,8,8H80V456a40.045,40.045,0,0,0,40,40H424a40.045,40.045,0,0,0,40-40V320h24a8,8,0,0,0,8-8V216A8,8,0,0,0,488,208ZM368,43.313,436.687,112H392a24.028,24.028,0,0,1-24-24ZM96,56a24.027,24.027,0,0,1,24-24H352V88a40.045,40.045,0,0,0,40,40h56v80H96ZM448,456a24.028,24.028,0,0,1-24,24H120a24.027,24.027,0,0,1-24-24V320H448Zm32-152H32V224H480Z"
          fill="#000000" style="fill: rgb(255, 255, 255);"></path>
    <path d="M408,160H216a8,8,0,0,0,0,16H408a8,8,0,0,0,0-16Z" fill="#000000" style="fill: rgb(255, 255, 255);"></path>
    <path d="M264,272H408a8,8,0,0,0,0-16H264a8,8,0,0,0,0,16Z" fill="#000000" style="fill: rgb(255, 255, 255);"></path>
    <path d="M184,160H136a8,8,0,0,0,0,16h48a8,8,0,0,0,0-16Z" fill="#000000" style="fill: rgb(255, 255, 255);"></path>
    <path d="M136,272h96a8,8,0,0,0,0-16H136a8,8,0,0,0,0,16Z" fill="#000000" style="fill: rgb(255, 255, 255);"></path>
    <path d="M344,400H264a8,8,0,0,0,0,16h80a8,8,0,0,0,0-16Z" fill="#000000" style="fill: rgb(255, 255, 255);"></path>
    <path d="M136,416h96a8,8,0,0,0,0-16H136a8,8,0,0,0,0,16Z" fill="#000000" style="fill: rgb(255, 255, 255);"></path>
    <path d="M136,368h64a8,8,0,0,0,0-16H136a8,8,0,0,0,0,16Z" fill="#000000" style="fill: rgb(255, 255, 255);"></path>
    <path d="M136,128h96a8,8,0,0,0,0-16H136a8,8,0,0,0,0,16Z" fill="#000000" style="fill: rgb(255, 255, 255);"></path>
    <path d="M232,368h80a8,8,0,0,0,0-16H232a8,8,0,0,0,0,16Z" fill="#000000" style="fill: rgb(255, 255, 255);"></path>
    <path d="M344,368h64a8,8,0,0,0,0-16H344a8,8,0,0,0,0,16Z" fill="#000000" style="fill: rgb(255, 255, 255);"></path>
    <path d="M408,400H376a8,8,0,0,0,0,16h32a8,8,0,0,0,0-16Z" fill="#000000" style="fill: rgb(255, 255, 255);"></path>
    <path d="M72,288a24,24,0,1,0-24-24A24.027,24.027,0,0,0,72,288Zm0-32a8,8,0,1,1-8,8A8.009,8.009,0,0,1,72,256Z"
          fill="#000000" style="fill: rgb(255, 255, 255);"></path>
</svg>