<!-- icon666.com - MILLIONS vector ICONS FREE -->
<svg id="Layer_1" viewBox="0 0 80 80" xmlns="http://www.w3.org/2000/svg" data-name="Layer 1">
    <path d="m40 30.22a1.35 1.35 0 1 0 1.59 1.32 1.48 1.48 0 0 0 -1.59-1.32z" fill-rule="evenodd" fill="#000000"
          style="fill: rgb(255, 255, 255);"></path>
    <circle cx="51.36" cy="40" r="1.32" fill="#000000" style="fill: rgb(255, 255, 255);"></circle>
    <circle cx="28.64" cy="40" r="1.32" fill="#000000" style="fill: rgb(255, 255, 255);"></circle>
    <g fill-rule="evenodd">
        <path d="m16.22 55.59v4.23a4.21 4.21 0 0 0 4.17 4.18h39.22a4.21 4.21 0 0 0 4.17-4.22v-4.19z" fill="#000000"
              style="fill: rgb(255, 255, 255);"></path>
        <path d="m20.39 16a4.19 4.19 0 0 0 -4.17 4.2v32.22h47.56v-32.26a4.19 4.19 0 0 0 -4.17-4.16zm30.76 5.6a1.37 1.37 0 0 1 1.37 1.4v12.88a4.17 4.17 0 0 1 0 7.87v4.47a1.39 1.39 0 0 1 -1.37 1.4 1.41 1.41 0 0 1 -1.4-1.4v-4.47a4.18 4.18 0 0 1 0-7.87v-12.88a1.39 1.39 0 0 1 1.4-1.44zm-11.15-.04a1.39 1.39 0 0 1 1.4 1.44v4.5a4.19 4.19 0 0 1 0 7.88v12.84a1.4 1.4 0 0 1 -2.8 0v-12.84a4.19 4.19 0 0 1 0-7.88v-4.5a1.39 1.39 0 0 1 1.4-1.44zm-11.15 0a1.39 1.39 0 0 1 1.4 1.4v12.92a4.18 4.18 0 0 1 0 7.87v4.47a1.4 1.4 0 1 1 -2.8 0v-4.47a4.18 4.18 0 0 1 0-7.87v-12.88a1.39 1.39 0 0 1 1.4-1.44z"
              fill="#000000" style="fill: rgb(255, 255, 255);"></path>
    </g>
</svg>